<svg width="256" height="256" viewBox="0 0 256 256" fill="none" xmlns="http://www.w3.org/2000/svg" xmlns:xlink="http://www.w3.org/1999/xlink">
<rect width="256" height="256" rx="60" fill="#2A2A2A"/>
<rect width="256" height="256" rx="60" fill="url(#pattern0_3208_27)" fill-opacity="0.05"/>
<path d="M99.4451 165.016C97.1284 167.326 93.3794 167.326 91.0626 165.016C88.7361 162.697 88.7361 158.928 91.0626 156.609L123.592 124.176C125.909 121.866 129.658 121.866 131.975 124.176C134.301 126.495 134.301 130.264 131.975 132.583L99.4451 165.016Z" fill="#D9D9D9"/>
<path fill-rule="evenodd" clip-rule="evenodd" d="M159.464 45.9429C187.406 45.9429 210.057 68.527 210.057 96.3859C210.057 124.245 187.406 146.829 159.464 146.829C131.522 146.829 108.871 124.245 108.871 96.3859C108.871 68.527 131.522 45.9429 159.464 45.9429ZM159.904 56.4701C138.036 56.4701 120.309 74.1446 120.309 95.9472C120.309 117.75 138.036 135.424 159.904 135.424C181.771 135.424 199.498 117.75 199.498 95.9472C199.498 74.1446 181.771 56.4701 159.904 56.4701Z" fill="#D9D9D9"/>
<path fill-rule="evenodd" clip-rule="evenodd" d="M85.518 143.517C88.8202 140.224 94.174 140.224 97.4761 143.517L112.682 158.677C115.984 161.97 115.984 167.308 112.682 170.6L78.4482 204.732C70.9471 212.211 58.7853 212.211 51.2841 204.732C43.7829 197.254 43.7829 185.128 51.2841 177.649L85.518 143.517ZM96.0818 160.013C93.7602 157.698 89.996 157.698 87.6743 160.013L60.2397 187.366C57.9181 189.681 57.9181 193.434 60.2397 195.749C62.5614 198.063 66.3256 198.063 68.6473 195.749L96.0818 168.395C98.4035 166.081 98.4035 162.328 96.0818 160.013Z" fill="#D9D9D9"/>
<rect x="20.9365" y="19.9851" width="215.078" height="215.078" rx="30" fill="url(#paint0_linear_3208_27)" fill-opacity="0.1"/>
<defs>
<linearGradient id="paint0_linear_3208_27" x1="128.476" y1="19.9851" x2="128.476" y2="235.063" gradientUnits="userSpaceOnUse">
<stop stop-color="white"/>
<stop offset="0.586538"/>
</linearGradient>
<pattern id="pattern0_3208_27" patternUnits="userSpaceOnUse" patternTransform="matrix(51.2 0 0 51.2 0 0)" preserveAspectRatio="none" viewBox="0 0 256 256" width="1" height="1">
<g id="pattern0_3208_27_inner">
<path d="M77.2299 191.927L64.1378 178.874L127.885 115.316L140.977 128.369L77.2299 191.927Z" fill="#D9D9D9"/>
<path fill-rule="evenodd" clip-rule="evenodd" d="M177.217 0C220.728 0 256 35.1677 256 78.5493C256 121.931 220.728 157.099 177.217 157.099C133.706 157.099 98.4337 121.931 98.4337 78.5493C98.4338 35.1677 133.706 3.61066e-06 177.217 0ZM177.902 16.3929C143.85 16.3929 116.246 43.9154 116.246 77.8662C116.246 111.817 143.85 139.34 177.902 139.34C211.954 139.34 239.558 111.817 239.558 77.8662C239.558 43.9154 211.954 16.3929 177.902 16.3929Z" fill="#D9D9D9"/>
<path fill-rule="evenodd" clip-rule="evenodd" d="M62.0693 151.941C67.2114 146.814 75.5483 146.814 80.6903 151.941L104.369 175.549C109.511 180.676 109.511 188.988 104.369 194.115L51.0603 247.265C39.3795 258.912 20.4413 258.912 8.76055 247.265C-2.9202 235.619 -2.92017 216.737 8.76055 205.091L62.0693 151.941ZM78.5192 177.629C74.9039 174.024 69.0424 174.024 65.4271 177.629L22.7062 220.222C19.0909 223.827 19.0909 229.671 22.7062 233.276C26.3215 236.88 32.183 236.88 35.7983 233.276L78.5192 190.682C82.1344 187.077 82.1344 181.233 78.5192 177.629Z" fill="#D9D9D9"/>
</g>
</pattern></defs>
</svg>
